<svg width="23" height="16" viewBox="0 0 23 15" fill="none" xmlns="http://www.w3.org/2000/svg">
<path d="M1.5 6.36841C0.947715 6.36841 0.5 6.81612 0.5 7.36841C0.5 7.92069 0.947715 8.36841 1.5 8.36841V6.36841ZM22.2071 8.07551C22.5976 7.68499 22.5976 7.05183 22.2071 6.6613L15.8431 0.29734C15.4526 -0.093184 14.8195 -0.093184 14.4289 0.29734C14.0384 0.687865 14.0384 1.32103 14.4289 1.71155L20.0858 7.36841L14.4289 13.0253C14.0384 13.4158 14.0384 14.049 14.4289 14.4395C14.8195 14.83 15.4526 14.83 15.8431 14.4395L22.2071 8.07551ZM1.5 8.36841H21.5V6.36841H1.5V8.36841Z" fill="white"/>
</svg>
