<svg width="20" height="20" viewBox="0 0 20 20" fill="none" xmlns="http://www.w3.org/2000/svg">
<path d="M4.44444 0H15V12.5L8.33333 20L7.59259 19.4271C7.31482 19.2014 7.11034 18.9149 6.97917 18.5677C6.84799 18.2205 6.82099 17.8646 6.89815 17.5L7.77778 12.5H1.66667C1.2037 12.5 0.810185 12.3177 0.486111 11.9531C0.162037 11.5885 0 11.1458 0 10.625V9.14062C0 9.00174 0.0115741 8.87587 0.0347222 8.76302C0.0578704 8.65017 0.0925926 8.53299 0.138889 8.41146L2.89352 1.14583C3.01698 0.798611 3.22145 0.520833 3.50694 0.3125C3.79244 0.104167 4.10494 0 4.44444 0ZM16.6667 12.5V0H20V12.5H16.6667Z" fill="white"/>
</svg>
