<svg width="20" height="20" viewBox="0 0 20 20" fill="none" xmlns="http://www.w3.org/2000/svg">
<g clip-path="url(#clip0_392_967)">
<path d="M10.4915 1.6665C5.8915 1.6665 2.1665 5.39984 2.1665 9.99984C2.1665 14.5998 5.8915 18.3332 10.4915 18.3332C15.0998 18.3332 18.8332 14.5998 18.8332 9.99984C18.8332 5.39984 15.0998 1.6665 10.4915 1.6665ZM10.4998 16.6665C6.8165 16.6665 3.83317 13.6832 3.83317 9.99984C3.83317 6.3165 6.8165 3.33317 10.4998 3.33317C14.1832 3.33317 17.1665 6.3165 17.1665 9.99984C17.1665 13.6832 14.1832 16.6665 10.4998 16.6665Z" fill="#BFBFBF"/>
<path d="M11.25 6H10V11L14.375 13.625L15 12.6L11.25 10.375V6Z" fill="#BFBFBF"/>
</g>
<defs>
<clipPath id="clip0_392_967">
<rect width="20" height="20" fill="white" transform="translate(0.5)"/>
</clipPath>
</defs>
</svg>
