<svg width="20" height="20" viewBox="0 0 20 20" fill="none" xmlns="http://www.w3.org/2000/svg">
<g clip-path="url(#clip0_392_961)">
<path d="M14.2498 2.5C12.7998 2.5 11.4082 3.175 10.4998 4.24167C9.5915 3.175 8.19984 2.5 6.74984 2.5C4.18317 2.5 2.1665 4.51667 2.1665 7.08333C2.1665 10.2333 4.99984 12.8 9.2915 16.7L10.4998 17.7917L11.7082 16.6917C15.9998 12.8 18.8332 10.2333 18.8332 7.08333C18.8332 4.51667 16.8165 2.5 14.2498 2.5ZM10.5832 15.4583L10.4998 15.5417L10.4165 15.4583C6.44984 11.8667 3.83317 9.49167 3.83317 7.08333C3.83317 5.41667 5.08317 4.16667 6.74984 4.16667C8.03317 4.16667 9.28317 4.99167 9.72484 6.13333H11.2832C11.7165 4.99167 12.9665 4.16667 14.2498 4.16667C15.9165 4.16667 17.1665 5.41667 17.1665 7.08333C17.1665 9.49167 14.5498 11.8667 10.5832 15.4583Z" fill="white"/>
</g>
<defs>
<clipPath id="clip0_392_961">
<rect width="20" height="20" fill="white" transform="translate(0.5)"/>
</clipPath>
</defs>
</svg>
